<svg width="65" height="65" viewBox="0 0 65 65" fill="none" xmlns="http://www.w3.org/2000/svg">
<path d="M10.9691 29.7917H18.6878C18.417 28.0765 17.8979 26.474 17.1305 24.9845C16.3632 23.4949 15.3927 22.1633 14.2191 20.9897C13.4066 22.2987 12.7182 23.6867 12.154 25.1537C11.5897 26.6207 11.1948 28.1667 10.9691 29.7917ZM46.3128 29.7917H54.0316C53.8059 28.1667 53.4109 26.6207 52.8467 25.1537C52.2824 23.6867 51.5941 22.2987 50.7816 20.9897C49.608 22.1633 48.6375 23.4949 47.8701 24.9845C47.1028 26.474 46.5837 28.0765 46.3128 29.7917ZM14.2191 44.0105C15.3927 42.8369 16.3632 41.5053 17.1305 40.0157C17.8979 38.5261 18.417 36.9237 18.6878 35.2084H10.9691C11.1948 36.8334 11.5897 38.3794 12.154 39.8464C12.7182 41.3135 13.4066 42.7015 14.2191 44.0105ZM50.7816 44.0105C51.5941 42.7015 52.2824 41.3135 52.8467 39.8464C53.4109 38.3794 53.8059 36.8334 54.0316 35.2084H46.3128C46.5837 36.9237 47.1028 38.5261 47.8701 40.0157C48.6375 41.5053 49.608 42.8369 50.7816 44.0105ZM24.2399 29.7917H29.792V10.9688C27.3996 11.3299 25.1765 11.9957 23.1227 12.9662C21.0689 13.9367 19.2295 15.2119 17.6045 16.7917C19.3649 18.507 20.8206 20.4593 21.9717 22.6485C23.1227 24.8378 23.8788 27.2188 24.2399 29.7917ZM35.2087 29.7917H40.7607C41.1219 27.2188 41.8779 24.8378 43.029 22.6485C44.18 20.4593 45.6357 18.507 47.3962 16.7917C45.7712 15.2119 43.9318 13.9367 41.8779 12.9662C39.8241 11.9957 37.601 11.3299 35.2087 10.9688V29.7917ZM29.792 54.0313V35.2084H24.2399C23.8788 37.7813 23.1227 40.1624 21.9717 42.3516C20.8206 44.5409 19.3649 46.4931 17.6045 48.2084C19.2295 49.7883 21.0689 51.0635 23.1227 52.0339C25.1765 53.0044 27.3996 53.6702 29.792 54.0313ZM35.2087 54.0313C37.601 53.6702 39.8241 53.0044 41.8779 52.0339C43.9318 51.0635 45.7712 49.7883 47.3962 48.2084C45.6357 46.4931 44.18 44.5409 43.029 42.3516C41.8779 40.1624 41.1219 37.7813 40.7607 35.2084H35.2087V54.0313ZM32.5003 59.5834C28.7538 59.5834 25.233 58.8725 21.9378 57.4506C18.6427 56.0287 15.7764 54.099 13.3389 51.6615C10.9014 49.224 8.97168 46.3577 7.5498 43.0626C6.12793 39.7674 5.41699 36.2466 5.41699 32.5001C5.41699 28.7536 6.12793 25.2327 7.5498 21.9376C8.97168 18.6424 10.9014 15.7761 13.3389 13.3386C15.7764 10.9011 18.6427 8.97144 21.9378 7.54956C25.233 6.12769 28.7538 5.41675 32.5003 5.41675C36.2469 5.41675 39.7677 6.12769 43.0628 7.54956C46.358 8.97144 49.2243 10.9011 51.6618 13.3386C54.0993 15.7761 56.029 18.6424 57.4508 21.9376C58.8727 25.2327 59.5837 28.7536 59.5837 32.5001C59.5837 36.2466 58.8727 39.7674 57.4508 43.0626C56.029 46.3577 54.0993 49.224 51.6618 51.6615C49.2243 54.099 46.358 56.0287 43.0628 57.4506C39.7677 58.8725 36.2469 59.5834 32.5003 59.5834Z" fill="#7F7F7F"/>
</svg>
