<svg width="65" height="65" viewBox="0 0 65 65" fill="none" xmlns="http://www.w3.org/2000/svg">
<path d="M25.7295 44.6874L44.6878 32.4999L25.7295 20.3124V44.6874ZM10.8337 54.1666C9.34408 54.1666 8.0689 53.6362 7.00814 52.5754C5.94737 51.5147 5.41699 50.2395 5.41699 48.7499V16.2499C5.41699 14.7603 5.94737 13.4852 7.00814 12.4244C8.0689 11.3636 9.34408 10.8333 10.8337 10.8333H54.167C55.6566 10.8333 56.9318 11.3636 57.9925 12.4244C59.0533 13.4852 59.5837 14.7603 59.5837 16.2499V48.7499C59.5837 50.2395 59.0533 51.5147 57.9925 52.5754C56.9318 53.6362 55.6566 54.1666 54.167 54.1666H10.8337ZM10.8337 48.7499H54.167V16.2499H10.8337V48.7499Z" fill="#7F7F7F"/>
</svg>
