<svg width="168" height="37" viewBox="0 0 168 37" fill="none" xmlns="http://www.w3.org/2000/svg">
<path fill-rule="evenodd" clip-rule="evenodd" d="M24.164 0.542208C18.0845 0.602889 16.8387 7.51724 16.8387 7.51724C16.8387 7.51724 15.4732 0.588816 9.3947 0.462615C3.31605 0.336265 -0.453733 5.64699 1.57366 11.2696C3.6009 16.892 5.64416 18.1657 8.85263 22.2514C12.0609 26.3372 16.7227 33.4002 16.6903 35.0601C16.6759 33.4 21.2189 26.3865 24.4712 22.3355C27.7235 18.2847 29.7804 17.0331 31.8681 11.4328C33.9559 5.83243 30.2437 0.481379 24.164 0.542208Z" fill="#7F7F7F"/>
<path fill-rule="evenodd" clip-rule="evenodd" d="M70.0601 11.9329C69.0939 11.9329 68.1731 12.1438 67.3335 12.5244C68.1219 11.2794 68.5846 9.77114 68.5846 8.14457C68.5846 3.87651 65.4057 0.416504 61.4846 0.416504C57.5635 0.416504 54.3848 3.87651 54.3848 8.14457C54.3848 9.6932 54.8049 11.1341 55.5254 12.3432C54.809 12.0786 54.0419 11.9329 53.2434 11.9329C49.3221 11.9329 46.1436 15.3929 46.1436 19.661C46.1436 23.929 49.3221 27.389 53.2434 27.389C54.1289 27.389 54.976 27.211 55.7578 26.8885C55.7577 26.8903 59.062 25.9191 61.2341 21.6157V24.2068C61.2341 24.2068 60.1204 32.3744 52.2689 33.2684H51.0159V34.5412H72.3989V33.2684H71.146C63.2945 32.3744 62.1807 24.2068 62.1807 24.2068V21.7901C62.5852 22.7599 64.8221 27.5014 69.8491 27.3837C69.9194 27.3855 69.9893 27.389 70.0601 27.389C73.9813 27.389 77.1599 23.929 77.1599 19.661C77.1599 15.3929 73.9813 11.9329 70.0601 11.9329Z" fill="#7F7F7F"/>
<path fill-rule="evenodd" clip-rule="evenodd" d="M90.8076 17.5924L107.455 34.7684L124.103 17.5924L107.455 0.416504L90.8076 17.5924Z" fill="#7F7F7F"/>
<path fill-rule="evenodd" clip-rule="evenodd" d="M159.983 28.3258C165.834 28.4014 169.433 24.0959 167.453 19.564C165.473 15.032 163.5 14.0123 160.392 10.7267C157.282 7.44099 152.761 1.75717 152.782 0.416504C152.805 1.75717 148.47 7.44099 145.361 10.7267C142.253 14.0123 140.28 15.032 138.299 19.564C136.319 24.0959 139.92 28.4014 145.77 28.3258C149.786 28.2739 151.593 25.6241 152.33 23.9674L152.33 26.1356C152.33 26.1356 151.048 33.9568 141.999 34.8129L140.557 34.8129L140.557 36.0317L165.197 36.0317L165.197 34.8129L163.753 34.8129C154.706 33.9568 153.422 26.1356 153.422 26.1356L153.422 24.2521C154.29 25.9106 156.189 28.2768 159.983 28.3258Z" fill="#7F7F7F"/>
</svg>
